<?xml version="1.0" encoding="utf-8"?>
<!-- Generator: Adobe Illustrator 28.1.0, SVG Export Plug-In . SVG Version: 6.00 Build 0)  -->
<svg version="1.1" id="Layer_1" xmlns="http://www.w3.org/2000/svg" xmlns:xlink="http://www.w3.org/1999/xlink" x="0px" y="0px"
	 viewBox="0 0 24 24" style="enable-background:new 0 0 24 24;" xml:space="preserve">
<style type="text/css">
	.st0{fill:#FFFFFF;}
</style>
<path class="st0" d="M12,2c5.5,0,10,4.5,10,10s-4.5,10-10,10S2,17.5,2,12S6.5,2,12,2z M12,0C5.4,0,0,5.4,0,12s5.4,12,12,12
	s12-5.4,12-12S18.6,0,12,0z M12,17.8c-3.9,0-6-2.4-6-5.6c0-3.4,2.4-6.1,6.6-6.1c3.1,0,5.4,2,5.4,4.8c0,4.4-5.2,5.5-4.9,3
	c-0.4,0.6-0.9,1.2-2,1.2c-1.3,0-2-0.9-2-2.4c0-2.2,1.5-4.1,3.2-4.1c0.8,0,1.4,0.4,1.6,1.1L14.1,9h1.2c-0.1,0.4-1.2,4.3-1.2,4.3
	c-0.3,1.3,0.7,1.4,1.6,0.6c1.7-1.3,1.8-4.7-0.5-6.1c-2.4-1.4-7.9-0.6-7.9,4.3c0,2.8,2,4.7,4.9,4.7c1.7,0,2.8-0.5,3.6-1l0.6,0.8
	C15.6,17.2,14.2,17.8,12,17.8z M10.8,10.7c-0.4,0.7-0.6,1.5-0.6,2.2c0,1.8,1.8,1.8,2.6,0.1c0.4-0.7,0.6-1.6,0.6-2.3
	C13.5,9.3,11.7,9,10.8,10.7z"/>
</svg>
