<?xml version="1.0" encoding="utf-8"?>
<!-- Generator: Adobe Illustrator 28.1.0, SVG Export Plug-In . SVG Version: 6.00 Build 0)  -->
<svg version="1.1" id="Layer_1" xmlns="http://www.w3.org/2000/svg" xmlns:xlink="http://www.w3.org/1999/xlink" x="0px" y="0px"
	 viewBox="0 0 360 319" style="enable-background:new 0 0 360 319;" xml:space="preserve">
<style type="text/css">
	.st0{clip-path:url(#SVGID_00000134220412257754967180000013539010390735271575_);fill:#28C2E6;}
	.st1{clip-path:url(#SVGID_00000134220412257754967180000013539010390735271575_);}
	.st2{clip-path:url(#SVGID_00000133508162953340214840000016315741207525012134_);fill:#FFFFFF;}
	.st3{clip-path:url(#SVGID_00000163794956347238198230000009674138881508028832_);fill:#FFFFFF;}
	.st4{clip-path:url(#SVGID_00000068659935388622303540000002762492885613538234_);fill:#FFFFFF;}
	.st5{clip-path:url(#SVGID_00000134220412257754967180000013539010390735271575_);fill:#FFFFFF;}
</style>
<g>
	<defs>
		<circle id="SVGID_1_" cx="179.9" cy="159.6" r="159.6"/>
	</defs>
	<clipPath id="SVGID_00000092432483791573472210000002716401240496707459_">
		<use xlink:href="#SVGID_1_"  style="overflow:visible;"/>
	</clipPath>
	
		<rect x="-0.1" y="0.1" style="clip-path:url(#SVGID_00000092432483791573472210000002716401240496707459_);fill:#28C2E6;" width="360" height="319"/>
	<g style="clip-path:url(#SVGID_00000092432483791573472210000002716401240496707459_);">
		<g>
			<g>
				<defs>
					<rect id="SVGID_00000042728306066549627590000007137590408816487093_" x="20.8" y="18.6" width="318.1" height="281.9"/>
				</defs>
				<clipPath id="SVGID_00000031176504103546719230000012817387481822094233_">
					<use xlink:href="#SVGID_00000042728306066549627590000007137590408816487093_"  style="overflow:visible;"/>
				</clipPath>
				<path style="clip-path:url(#SVGID_00000031176504103546719230000012817387481822094233_);fill:#FFFFFF;" d="M92.9,122.4
					c-0.1-0.2-0.2-0.3-0.3-0.4c-0.2-0.2-0.4-0.4-0.8-0.4c-0.6-0.2-1.2-0.1-1.9-0.1c-1.4-0.1-3,0.1-4.1,1.1c-0.5,0.5-0.9,1.2-1.2,1.9
					c-0.8,1.3-1.7,2.6-2.5,3.9c-1.1,1.8-2.2,3.5-3.3,5.4c-1.1,1.9-2.2,3.7-3.3,5.6c-1.1,1.9-2.1,3.8-3.2,5.7c-1.1,1.9-2,3.8-3,5.7
					c-1,1.9-1.9,3.7-2.8,5.7c-0.9,1.8-1.8,3.6-2.7,5.4c-0.8,1.7-1.6,3.4-2.4,5c-0.7,1.5-1.3,3.1-2,4.6c-0.5,1.3-1.1,2.7-1.6,4.1
					c-0.4,1.1-0.8,2.2-1.1,3.4c-0.1,0.3-0.2,0.5-0.3,0.8c-1.7,6.1-0.1,10,1.7,11.6c0.9,0.9,1.5,0.9,2-0.4
					c10-23.3,20.8-41.3,28.5-55.1c1.2-2.2,2.4-4.6,3.2-7c0.4-1,0.5-1.9,0.7-2.9c0.2-1,0.4-1.9,0.4-2.9
					C93,122.7,92.9,122.6,92.9,122.4"/>
			</g>
		</g>
		<g>
			<g>
				<defs>
					<rect id="SVGID_00000023268065100459339540000008126916409654178195_" x="20.8" y="18.6" width="318.1" height="281.9"/>
				</defs>
				<clipPath id="SVGID_00000071519135575181524530000011076588520784782732_">
					<use xlink:href="#SVGID_00000023268065100459339540000008126916409654178195_"  style="overflow:visible;"/>
				</clipPath>
				<path style="clip-path:url(#SVGID_00000071519135575181524530000011076588520784782732_);fill:#FFFFFF;" d="M49.7,161.4
					c0,0,1.6,1.4,3.4,0c1.8-1.4-1.8-4-1.8-4s-15.7-14.2,0.2-27.6c15.9-13.3,49.5-20,49.5-20s31.4-7.5,78.1-9.9
					c17.9-0.9,36-0.8,53.9,1.1c17.6,1.9,35.1,5.3,51.6,11.7c12.5,4.9,23.9,11.8,35.3,18.9c1,0.6,1.9,1.2,3,1.6
					c0.3,0.1,0.6,0.2,0.9,0c0.4-0.4,0.1-1-0.4-1.3c-7.2-7.3-16.4-13.2-25.4-18c-13.3-7.3-27.7-12.5-42.4-16.7
					c-11.9-3.4-24.3-5.1-36.7-6.2c-13.3-1.1-26.7-1.1-40-0.5c-38.3,1.7-79.5,12.1-79.5,12.1s-37,8.7-51.8,24.3
					C34.5,140.6,40.6,155,49.7,161.4"/>
			</g>
		</g>
		<g>
			<g>
				<defs>
					<rect id="SVGID_00000004519097445552589830000010265799341353536438_" x="20.8" y="18.6" width="318.1" height="281.9"/>
				</defs>
				<clipPath id="SVGID_00000045581492535956028020000004716663012825484454_">
					<use xlink:href="#SVGID_00000004519097445552589830000010265799341353536438_"  style="overflow:visible;"/>
				</clipPath>
				<path style="clip-path:url(#SVGID_00000045581492535956028020000004716663012825484454_);fill:#FFFFFF;" d="M285.6,170.8
					c-0.5-1.1-1.5-1.1-2.2-0.1c-5.5,8.4-14.8,18.6-25.4,18.1c-6.8-0.4-9.8-8.4-5.7-20.1c8.9,7.2,17.5,4,23.8-3.7
					c5.4-6.5,6.4-14.3,4.1-17.4c-2-2.8-4.3-4.7-7.5-6.6c-6.4-3.7-19.4,2.9-27.7,19.4c-2.6,5-3.8,10.1-3.8,14.6
					c-4,6.8-9.5,13.6-13.9,13.2c-4.9-0.5-8.4-7.8-8.9-18.3c8-2.4,13.4-6.1,17.8-10.3c4.7-4.6,5.1-10,2.7-14.9
					c-2.6-5.4-5.7-7.2-10.5-5.7c-3.4,1.1-7.2,3.4-11.4,7.2c3.4-6.3,8.4-15.2,11.5-20.4c5.4-9.3,5.7-14.4,3.7-18.3
					c-0.8-1.5-2-1.4-3.2,0.1c-10.8,14.6-30.3,52.9-35.3,66.9c-5.1,8-12.3,14.5-17.5,14c-5.7-0.5-4.3-11.1,0.8-23.6
					c11.4-7.4,25.6-22.7,29.6-38.4c1.5-6,0.8-10.7-2.9-14c-1.8-1.7-3.5-1.4-5.5,0.6c-12.9,13.4-27.3,36.3-32.2,58.3
					c-5.6,8.3-14.6,17.8-24.9,17.4c-6.8-0.4-9.8-8.4-5.7-20.1c8.9,7.2,17.5,4,23.8-3.7c5.4-6.5,6.4-14.3,4.1-17.4
					c-2-2.8-4.3-4.7-7.5-6.6c-6.4-3.7-19.4,2.9-27.7,19.4c-0.4,0.7-0.7,1.4-1,2.1c-1.6-0.4-3.5-0.6-5-0.8c0.1-0.9,0.1-1.7,0.3-2.7
					c0.8-9.2-3.1-10.1-6-14c-2.6-3.4-4.7-4.6-8.7-4.3c-7.7,0.5-15.5,8-20.3,16.6c-5.7,10.2-7.7,21.3-2,28.7
					c5.1,6.6,11.5,7.2,16.1,5.7c9.5-3.2,17.5-16.1,20.1-26.9c1.4,0.1,3.1,0.4,4.4,0.6c-4.9,14.6,1.1,27.5,15.6,27.2
					c9-0.1,18-5,23.6-11.8c0.4,7.7,4.8,11.3,11.4,11.5c5.6,0.2,11-3,14.9-6.5c0.1,2.4,0.7,4,1.7,5c0.9,1.1,1.9,0.8,2.3-0.3
					c9.8-23.5,15.6-34.7,25.2-42c6.7-5.2,12.4-6.6,13.8-4.3c1.9,3.4-6.5,14.4-22.4,19.6c-2.4,0.8-2.7,1.1-2.7,3.4
					c-0.3,17.2,7.2,24.5,16.2,24.7c8.1,0.1,13.5-5.1,16.9-10c2.2,6.5,7.8,10.8,16.3,10.7c9.8-0.1,19.6-6,25-13.8
					C285.7,175.5,286.1,171.9,285.6,170.8 M254.5,163.7c6-12.1,16.6-19.8,19.3-17.6c1.8,1.4-1.1,8-5.1,13.4
					c-3.7,4.9-8.9,10.3-15.2,6.4C253.7,165.2,254,164.4,254.5,163.7 M182.1,153.4c8.8-16.3,18.3-30.5,19.9-29.5
					c1.7,1.1-5.5,21.5-23,35.6C179.9,157.5,181,155.4,182.1,153.4 M137.3,163.7c6-12.1,16.6-19.8,19.3-17.6c1.8,1.4-1.1,8-5.1,13.4
					c-3.7,4.9-8.9,10.3-15.2,6.4C136.5,165.2,136.9,164.4,137.3,163.7 M108.3,173.3c-6.3,11.8-14,16.2-17.6,13.3
					c-3.4-2.8-1.4-14.6,4-24.2c2.7-4.9,6.4-9.1,9.8-12c0.1,4.8,3.2,9.2,5.8,11.2c0.8,0.6,1.5,1.1,2.4,1.5
					C111.8,166.1,110.2,169.7,108.3,173.3 M113.6,159.6c-2-1.9-3.4-5.7-2.8-9.1c0.6-3.7,3.2-4.5,3.8-0.4
					C115,152.4,114.7,155.7,113.6,159.6"/>
			</g>
		</g>
	</g>
	<path style="clip-path:url(#SVGID_00000092432483791573472210000002716401240496707459_);fill:#FFFFFF;" d="M105.9,207.2
		c6.1,0,9.3,3.5,9.3,9.8s-3.2,9.9-9.2,9.9h-5v-19.7H105.9L105.9,207.2z M105.8,224.8c4.6,0,6.9-2.9,6.9-7.9s-2.3-7.7-6.9-7.7h-2.2
		v15.6L105.8,224.8L105.8,224.8z M125.7,207.2H137v2.1h-8.8v6.2h7.5v2.1h-7.5v7.2h9.1v2.1h-11.6V207.2L125.7,207.2z M146.4,224.3
		l1.5-1.7c1.4,1.5,3.4,2.4,5.4,2.4c2.6,0,4.1-1.3,4.1-3.2c0-2-1.4-2.7-3.3-3.5l-2.8-1.2c-1.8-0.8-4-2.2-4-5.1c0-3,2.6-5.2,6.2-5.2
		c2.3,0,4.4,1,5.8,2.4l-1.3,1.6c-1.2-1.1-2.6-1.8-4.5-1.8c-2.2,0-3.7,1.1-3.7,2.9c0,1.9,1.7,2.6,3.3,3.3l2.8,1.2
		c2.3,1,4.1,2.3,4.1,5.3c0,3.1-2.6,5.6-6.7,5.6C150.5,227.3,148.1,226.1,146.4,224.3z M170.1,207.2h2.5v19.7h-2.5V207.2z
		 M183.2,217.1c0-6.4,3.8-10.2,9-10.2c2.7,0,4.5,1.2,5.7,2.4l-1.4,1.6c-1-1-2.3-1.9-4.2-1.9c-4,0-6.5,3-6.5,8c0,4.9,2.3,8.1,6.5,8.1
		c1.4,0,2.8-0.4,3.5-1.2v-5.1h-4.2v-2.1h6.5v8.3c-1.3,1.3-3.4,2.3-6.1,2.3C186.9,227.3,183.2,223.5,183.2,217.1z M209.1,207.2h2.6
		l7.1,12.4l2.1,4.1h0.1c-0.1-2-0.3-4.2-0.3-6.3v-10.2h2.4v19.7h-2.6l-7.1-12.4l-2.1-4.1h-0.1c0.1,2,0.3,4.1,0.3,6.2v10.3h-2.4V207.2
		L209.1,207.2z M233.4,224.3l1.5-1.7c1.4,1.5,3.4,2.4,5.4,2.4c2.6,0,4.1-1.3,4.1-3.2c0-2-1.4-2.7-3.3-3.5l-2.8-1.2
		c-1.8-0.8-4-2.2-4-5.1c0-3,2.6-5.2,6.2-5.2c2.3,0,4.4,1,5.8,2.4l-1.3,1.6c-1.2-1.1-2.6-1.8-4.5-1.8c-2.2,0-3.7,1.1-3.7,2.9
		c0,1.9,1.7,2.6,3.3,3.3l2.8,1.2c2.3,1,4.1,2.3,4.1,5.3c0,3.1-2.6,5.6-6.7,5.6C237.5,227.3,235.1,226.1,233.4,224.3z"/>
</g>
</svg>
