<?xml version="1.0" encoding="utf-8"?>
<!-- Generator: Adobe Illustrator 28.1.0, SVG Export Plug-In . SVG Version: 6.00 Build 0)  -->
<svg version="1.1" id="Layer_1" xmlns="http://www.w3.org/2000/svg" xmlns:xlink="http://www.w3.org/1999/xlink" x="0px" y="0px"
	 viewBox="0 0 360 318.96" style="enable-background:new 0 0 360 318.96;" xml:space="preserve">
<style type="text/css">
	.st0{fill:#28C2E6;}
	.st1{clip-path:url(#SVGID_00000149356058556751298280000010521681356125838733_);fill:#FFFFFF;}
	.st2{fill:#FFFFFF;}
</style>
<rect x="-0.1019" y="0.115" class="st0" width="360" height="318.96"/>
<g>
	<defs>
		<rect id="SVGID_1_" x="-0.1019" y="0.115" width="360" height="318.96"/>
	</defs>
	<clipPath id="SVGID_00000061446315754048121060000011363937236065839541_">
		<use xlink:href="#SVGID_1_"  style="overflow:visible;"/>
	</clipPath>
	<path style="clip-path:url(#SVGID_00000061446315754048121060000011363937236065839541_);fill:#FFFFFF;" d="M81.355,117.575
		c-0.066-0.16-0.156-0.309-0.273-0.436c-0.228-0.245-0.546-0.394-0.873-0.471c-0.683-0.163-1.414-0.104-2.111-0.134
		c-1.636-0.069-3.393,0.084-4.639,1.274c-0.613,0.586-1.013,1.353-1.448,2.08c-0.892,1.487-1.876,2.92-2.792,4.391
		c-1.247,2.006-2.468,4.026-3.67,6.059c-1.24,2.097-2.455,4.207-3.654,6.328c-1.211,2.146-2.403,4.303-3.576,6.469
		c-1.164,2.151-2.31,4.311-3.437,6.481c-1.097,2.112-2.177,4.232-3.238,6.362c-1.01,2.03-2.003,4.068-2.976,6.116
		c-0.904,1.904-1.79,3.817-2.653,5.74c-0.779,1.735-1.539,3.48-2.27,5.235c-0.636,1.523-1.249,3.055-1.826,4.602
		c-0.473,1.267-0.923,2.544-1.318,3.837c-0.093,0.301-0.182,0.603-0.267,0.904c-1.876,6.929-0.14,11.269,1.882,13.139
		c1.012,1.011,1.729,1.011,2.31-0.425c11.262-26.438,23.54-46.655,32.209-62.404c1.397-2.538,2.659-5.171,3.564-7.927
		c0.352-1.07,0.633-2.164,0.843-3.27c0.203-1.076,0.442-2.249,0.352-3.347C81.476,117.972,81.434,117.765,81.355,117.575"/>
	<path style="clip-path:url(#SVGID_00000061446315754048121060000011363937236065839541_);fill:#FFFFFF;" d="M32.4895,161.7521
		c0,0,1.839,1.58,3.839,0c2-1.58-2.003-4.506-2.003-4.506s-17.847-16.085,0.167-31.205c18.013-15.119,55.994-22.582,55.994-22.582
		s35.462-8.507,88.436-11.193c20.316-1.03,40.743-0.933,60.984,1.242c19.87,2.134,39.733,5.955,58.403,13.245
		c14.193,5.542,27.143,13.306,40.004,21.4c1.076,0.676,2.162,1.358,3.355,1.792c0.328,0.12,0.728,0.21,1-0.01
		c0.461-0.373,0.06-1.106-0.355-1.53c-8.057-8.267-18.583-14.862-28.657-20.389c-15.117-8.29-31.43-14.245-47.994-18.884
		c-13.523-3.787-27.474-5.793-41.464-6.951c-15.053-1.249-30.195-1.259-45.276-0.586c-43.437,1.94-90.002,13.656-90.002,13.656
		s-41.862,9.95-58.645,27.46C15.4455,138.1821,22.1735,154.5261,32.4895,161.7521"/>
	<path style="clip-path:url(#SVGID_00000061446315754048121060000011363937236065839541_);fill:#FFFFFF;" d="M299.5077,172.4383
		c-0.583-1.292-1.736-1.292-2.458-0.14c-6.21,9.538-16.755,21.088-28.745,20.512c-7.657-0.436-11.12-9.527-6.498-22.817
		c10.108,8.233,19.788,4.47,26.863-4.187c6.068-7.375,7.221-16.183,4.622-19.653c-2.311-3.176-4.911-5.34-8.521-7.503
		c-7.221-4.2-21.953,3.316-31.344,21.946c-2.879,5.718-4.27,11.38-4.296,16.475c-4.483,7.736-10.809,15.357-15.737,14.869
		c-5.486-0.577-9.532-8.81-10.109-20.653c9.097-2.741,15.167-6.927,20.077-11.703c5.346-5.198,5.775-11.267,3.035-16.888
		c-2.893-6.07-6.357-8.246-11.85-6.363c-3.752,1.305-8.233,3.751-12.855,8.233c3.905-7.082,9.539-17.185,13.002-23.112
		c6.068-10.537,6.357-16.324,4.187-20.653c-0.864-1.728-2.311-1.587-3.61,0.142c-12.16,16.531-34.257,59.927-40.039,75.697
		c-5.778,9.007-13.911,16.374-19.774,15.887c-6.503-0.587-4.91-12.573,0.866-26.721c12.854-8.386,29.031-25.722,33.513-43.482
		c1.728-6.786,0.864-12.137-3.323-15.888c-2.023-1.882-4.046-1.589-6.216,0.717c-14.616,15.193-30.933,41.05-36.408,66.001
		c-6.273,9.359-16.545,20.214-28.178,19.656c-7.657-0.436-11.121-9.527-6.498-22.817c10.108,8.233,19.788,4.47,26.863-4.187
		c6.068-7.375,7.221-16.183,4.621-19.653c-2.311-3.176-4.91-5.34-8.52-7.503c-7.221-4.2-21.953,3.316-31.344,21.946
		c-0.404,0.801-0.767,1.601-1.113,2.4c-1.783-0.466-3.971-0.73-5.666-0.875c0.107-1.007,0.126-1.93,0.257-2.96
		c0.865-10.408-3.47-11.42-6.792-15.89c-2.888-3.904-5.345-5.198-9.82-4.915c-8.669,0.575-17.478,8.961-22.97,18.782
		c-6.498,11.549-8.662,24.122-2.31,32.496c5.78,7.516,13.001,8.092,18.2,6.352c10.684-3.609,19.775-18.176,22.815-30.45
		c1.625,0.095,3.546,0.398,5.04,0.672c-5.613,16.489,1.179,31.053,17.672,30.789c10.191-0.13,20.37-5.729,26.673-13.441
		c0.48,8.74,5.37,12.791,12.927,13.005c6.345,0.162,12.383-3.381,16.875-7.325c0.082,2.66,0.809,4.487,1.919,5.738
		c1.011,1.164,2.164,0.87,2.6-0.283c11.12-26.58,17.619-39.294,28.456-47.527c7.65-5.916,14.007-7.503,15.595-4.904
		c2.17,3.751-7.362,16.313-25.275,22.24c-2.746,0.871-3.035,1.306-3.035,3.906c-0.287,19.5,8.233,27.732,18.349,27.872
		c9.179,0.115,15.273-5.848,19.109-11.344c2.497,7.344,8.804,12.216,18.401,12.063c11.12-0.141,22.24-6.787,28.309-15.596
		C299.6477,177.6503,300.0836,173.6043,299.5077,172.4383 M264.2597,164.3603c6.791-13.726,18.777-22.394,21.811-19.936
		c2.023,1.587-1.153,9.103-5.776,15.16c-4.193,5.493-10.114,11.703-17.188,7.222
		C263.3947,166.0883,263.8297,165.2183,264.2597,164.3603 M182.3917,152.6573c9.968-18.489,20.653-34.52,22.529-33.367
		c1.881,1.153-6.21,24.264-25.999,40.294C179.9337,157.2783,181.0917,154.9613,182.3917,152.6573 M131.6647,164.3603
		c6.793-13.726,18.777-22.394,21.812-19.936c2.023,1.587-1.153,9.103-5.775,15.16c-4.192,5.493-10.114,11.703-17.188,7.222
		C130.8007,166.0883,131.2367,165.2183,131.6647,164.3603 M98.8517,175.1913c-7.074,13.29-15.884,18.347-19.93,15.019
		c-3.757-3.176-1.587-16.466,4.476-27.439c3.034-5.493,7.222-10.255,11.12-13.584c0.147,5.351,3.617,10.397,6.646,12.714
		c0.87,0.717,1.734,1.293,2.746,1.729C102.7567,167.1003,101.0217,171.1463,98.8517,175.1913 M104.9207,159.7373
		c-2.311-2.176-3.899-6.363-3.176-10.256c0.717-4.187,3.612-5.057,4.335-0.435
		C106.5077,151.6463,106.0797,155.2563,104.9207,159.7373"/>
</g>
<path class="st2" d="M112.5729,215.2062c6.0535,0,9.2991,3.5183,9.2991,9.7734s-3.2456,9.9154-9.1888,9.9154h-5.0359v-19.6888
	H112.5729z M112.3867,232.8407c4.6021,0,6.8978-2.8842,6.8978-7.8611s-2.2957-7.7191-6.8978-7.7191h-2.2338v15.5802H112.3867z
	 M132.3975,215.2062h11.3482v2.1205h-8.8427v6.1692h7.4594v2.1205h-7.4594v7.158h9.1427v2.1205h-11.6481V215.2062z
	 M153.0798,232.3324l1.499-1.7198c1.4179,1.4702,3.3853,2.4397,5.4319,2.4397c2.5837,0,4.1158-1.2873,4.1158-3.2
	c0-2.0107-1.426-2.6519-3.2845-3.4636l-2.828-1.2475c-1.8345-0.7831-3.9867-2.1738-3.9867-5.0695
	c0-3.0076,2.6207-5.2255,6.198-5.2255c2.3337,0,4.4144,1.0106,5.7972,2.4393l-1.3286,1.6094
	c-1.2062-1.1385-2.6495-1.846-4.4686-1.846c-2.2079,0-3.6704,1.1136-3.6704,2.8746c0,1.8969,1.7166,2.6061,3.2591,3.2581
	l2.806,1.2144c2.2782,0.9789,4.0563,2.3365,4.0563,5.2639c0,3.1103-2.5703,5.5951-6.7096,5.5951
	C157.2034,235.255,154.8006,234.1275,153.0798,232.3324z M176.8272,215.2062h2.5055v19.6888h-2.5055V215.2062z M189.8739,225.0679
	c0-6.3501,3.8173-10.2217,9.0371-10.2217c2.7282,0,4.5248,1.2379,5.6772,2.4282l-1.3727,1.6314
	c-0.9979-1.0296-2.2612-1.857-4.2382-1.857c-3.967,0-6.5157,3.0479-6.5157,7.9528c0,4.9491,2.3404,8.0507,6.5407,8.0507
	c1.4121,0,2.7705-0.4233,3.5475-1.1563v-5.1267h-4.1691v-2.0764h6.4538v8.2758c-1.2662,1.3199-3.4227,2.2861-6.0689,2.2861
	C193.5712,235.255,189.8739,231.4622,189.8739,225.0679z M215.8273,215.2062h2.5876l7.1258,12.3778l2.1254,4.0765h0.12
	c-0.1262-1.9862-0.3187-4.2056-0.3187-6.2642v-10.19h2.3793v19.6888h-2.5876l-7.1258-12.3888l-2.1254-4.0654h-0.12
	c0.1262,1.9924,0.3187,4.0918,0.3187,6.1505v10.3038h-2.3792V215.2062z M240.11,232.3324l1.499-1.7198
	c1.4179,1.4702,3.3853,2.4397,5.4319,2.4397c2.5837,0,4.1158-1.2873,4.1158-3.2c0-2.0107-1.426-2.6519-3.2845-3.4636l-2.828-1.2475
	c-1.8345-0.7831-3.9867-2.1738-3.9867-5.0695c0-3.0076,2.6207-5.2255,6.198-5.2255c2.3337,0,4.4144,1.0106,5.7972,2.4393
	l-1.3286,1.6094c-1.2062-1.1385-2.6495-1.846-4.4686-1.846c-2.2079,0-3.6704,1.1136-3.6704,2.8746
	c0,1.8969,1.7166,2.6061,3.2591,3.2581l2.806,1.2144c2.2782,0.9789,4.0563,2.3365,4.0563,5.2639
	c0,3.1103-2.5703,5.5951-6.7096,5.5951C244.2335,235.255,241.8307,234.1275,240.11,232.3324z"/>
</svg>
