<?xml version="1.0" encoding="utf-8"?>
<!-- Generator: Adobe Illustrator 28.1.0, SVG Export Plug-In . SVG Version: 6.00 Build 0)  -->
<svg version="1.1" id="Layer_1" xmlns="http://www.w3.org/2000/svg" xmlns:xlink="http://www.w3.org/1999/xlink" x="0px" y="0px"
	 viewBox="0 0 360 152" style="enable-background:new 0 0 360 152;" xml:space="preserve">
<style type="text/css">
	.st0{clip-path:url(#SVGID_00000182523575593351714090000016708192641681136572_);fill:#FFFFFF;}
	.st1{clip-path:url(#SVGID_00000181067840188130617070000006187845077073383810_);fill:#FFFFFF;}
	.st2{clip-path:url(#SVGID_00000065051506744348671590000007460991391741842078_);fill:#FFFFFF;}
</style>
<g>
	<g>
		<g>
			<defs>
				<rect id="SVGID_1_" y="-67" width="360" height="319"/>
			</defs>
			<clipPath id="SVGID_00000133500397886816518400000009805014776821391238_">
				<use xlink:href="#SVGID_1_"  style="overflow:visible;"/>
			</clipPath>
			<path style="clip-path:url(#SVGID_00000133500397886816518400000009805014776821391238_);fill:#FFFFFF;" d="M81.5,50.5
				c-0.1-0.2-0.2-0.3-0.3-0.4c-0.2-0.2-0.5-0.4-0.9-0.5c-0.7-0.2-1.4-0.1-2.1-0.1c-1.6-0.1-3.4,0.1-4.6,1.3c-0.6,0.6-1,1.4-1.4,2.1
				c-0.9,1.5-1.9,2.9-2.8,4.4c-1.2,2-2.5,4-3.7,6.1s-2.5,4.2-3.7,6.3s-2.4,4.3-3.6,6.5c-1.2,2.2-2.3,4.3-3.4,6.5
				c-1.1,2.1-2.2,4.2-3.2,6.4c-1,2-2,4.1-3,6.1c-0.9,1.9-1.8,3.8-2.7,5.7c-0.8,1.7-1.5,3.5-2.3,5.2c-0.6,1.5-1.2,3.1-1.8,4.6
				c-0.5,1.3-0.9,2.5-1.3,3.8c-0.1,0.3-0.2,0.6-0.3,0.9c-1.9,6.9-0.1,11.3,1.9,13.1c1,1,1.7,1,2.3-0.4
				c11.3-26.4,23.5-46.7,32.2-62.4c1.4-2.5,2.7-5.2,3.6-7.9c0.4-1.1,0.6-2.2,0.8-3.3c0.2-1.1,0.4-2.2,0.4-3.3
				C81.6,50.9,81.5,50.7,81.5,50.5"/>
		</g>
	</g>
	<g>
		<g>
			<defs>
				<rect id="SVGID_00000051347587737563689420000010641843202433124501_" y="-67" width="360" height="319"/>
			</defs>
			<clipPath id="SVGID_00000106837038374322861340000017675663458760675742_">
				<use xlink:href="#SVGID_00000051347587737563689420000010641843202433124501_"  style="overflow:visible;"/>
			</clipPath>
			<path style="clip-path:url(#SVGID_00000106837038374322861340000017675663458760675742_);fill:#FFFFFF;" d="M32.6,94.6
				c0,0,1.8,1.6,3.8,0s-2-4.5-2-4.5S16.6,74,34.6,58.9s56-22.6,56-22.6s35.5-8.5,88.4-11.2c20.3-1,40.7-0.9,61,1.2
				c19.9,2.1,39.7,6,58.4,13.2c14.2,5.5,27.1,13.3,40,21.4c1.1,0.7,2.2,1.4,3.4,1.8c0.3,0.1,0.7,0.2,1,0c0.5-0.4,0.1-1.1-0.4-1.5
				c-8.1-8.3-18.6-14.9-28.7-20.4c-15.1-8.3-31.4-14.2-48-18.9c-13.5-3.8-27.5-5.8-41.5-7c-15.1-1.2-30.2-1.3-45.3-0.6
				c-43.4,1.9-90,13.7-90,13.7S47,37.9,30.3,55.5C15.5,71.1,22.3,87.4,32.6,94.6"/>
		</g>
	</g>
	<g>
		<g>
			<defs>
				<rect id="SVGID_00000116953374909210420600000005839005556237149583_" y="-67" width="360" height="319"/>
			</defs>
			<clipPath id="SVGID_00000093888777190137858500000003463600988738049460_">
				<use xlink:href="#SVGID_00000116953374909210420600000005839005556237149583_"  style="overflow:visible;"/>
			</clipPath>
			<path style="clip-path:url(#SVGID_00000093888777190137858500000003463600988738049460_);fill:#FFFFFF;" d="M299.6,105.3
				c-0.6-1.3-1.7-1.3-2.5-0.1c-6.2,9.5-16.8,21.1-28.7,20.5c-7.7-0.4-11.1-9.5-6.5-22.8c10.1,8.2,19.8,4.5,26.9-4.2
				c6.1-7.4,7.2-16.2,4.6-19.7c-2.3-3.2-4.9-5.3-8.5-7.5c-7.2-4.2-22,3.3-31.3,21.9c-2.9,5.7-4.3,11.4-4.3,16.5
				c-4.5,7.7-10.8,15.4-15.7,14.9c-5.5-0.6-9.5-8.8-10.1-20.7c9.1-2.7,15.2-6.9,20.1-11.7c5.3-5.2,5.8-11.3,3-16.9
				c-2.9-6.1-6.4-8.2-11.9-6.4c-3.8,1.3-8.2,3.8-12.9,8.2c3.9-7.1,9.5-17.2,13-23.1c6.1-10.5,6.4-16.3,4.2-20.7
				c-0.9-1.7-2.3-1.6-3.6,0.1c-12.2,16.5-34.3,59.9-40,75.7c-5.8,9-13.9,16.4-19.8,15.9c-6.5-0.6-4.9-12.6,0.9-26.7
				c12.9-8.4,29-25.7,33.5-43.5c1.7-6.8,0.9-12.1-3.3-15.9c-2-1.9-4-1.6-6.2,0.7c-14.6,15.2-30.9,41.1-36.4,66
				c-6.3,9.4-16.5,20.2-28.2,19.7c-7.7-0.4-11.1-9.5-6.5-22.8c10.1,8.2,19.8,4.5,26.9-4.2c6.1-7.4,7.2-16.2,4.6-19.7
				c-2.3-3.2-4.9-5.3-8.5-7.5c-7.2-4.2-22,3.3-31.3,21.9c-0.4,0.8-0.8,1.6-1.1,2.4c-1.8-0.5-4-0.7-5.7-0.9c0.1-1,0.1-1.9,0.3-3
				c0.9-10.4-3.5-11.4-6.8-15.9c-2.9-3.9-5.3-5.2-9.8-4.9c-8.7,0.6-17.5,9-23,18.8c-6.5,11.5-8.7,24.1-2.3,32.5
				c5.8,7.5,13,8.1,18.2,6.4c10.7-3.6,19.8-18.2,22.8-30.4c1.6,0.1,3.5,0.4,5,0.7c-5.6,16.5,1.2,31.1,17.7,30.8
				c10.2-0.1,20.4-5.7,26.7-13.4c0.5,8.7,5.4,12.8,12.9,13c6.3,0.2,12.4-3.4,16.9-7.3c0.1,2.7,0.8,4.5,1.9,5.7
				c1,1.2,2.2,0.9,2.6-0.3c11.1-26.6,17.6-39.3,28.5-47.5c7.6-5.9,14-7.5,15.6-4.9c2.2,3.8-7.4,16.3-25.3,22.2c-2.7,0.9-3,1.3-3,3.9
				c-0.3,19.5,8.2,27.7,18.3,27.9c9.2,0.1,15.3-5.8,19.1-11.3c2.5,7.3,8.8,12.2,18.4,12.1c11.1-0.1,22.2-6.8,28.3-15.6
				C299.7,110.5,300.2,106.5,299.6,105.3 M264.4,97.2c6.8-13.7,18.8-22.4,21.8-19.9c2,1.6-1.2,9.1-5.8,15.2
				c-4.2,5.5-10.1,11.7-17.2,7.2C263.5,99,263.9,98.1,264.4,97.2 M182.5,85.5C192.5,67,203.2,51,205,52.1c1.9,1.2-6.2,24.3-26,40.3
				C180,90.2,181.2,87.8,182.5,85.5 M131.8,97.2c6.8-13.7,18.8-22.4,21.8-19.9c2,1.6-1.2,9.1-5.8,15.2c-4.2,5.5-10.1,11.7-17.2,7.2
				C130.9,99,131.3,98.1,131.8,97.2 M99,108.1c-7.1,13.3-15.9,18.3-19.9,15c-3.8-3.2-1.6-16.5,4.5-27.4c3-5.5,7.2-10.3,11.1-13.6
				c0.1,5.4,3.6,10.4,6.6,12.7c0.9,0.7,1.7,1.3,2.7,1.7C102.9,100,101.1,104,99,108.1 M105,92.6c-2.3-2.2-3.9-6.4-3.2-10.3
				c0.7-4.2,3.6-5.1,4.3-0.4C106.6,84.5,106.2,88.1,105,92.6"/>
		</g>
	</g>
</g>
</svg>
