<?xml version="1.0" encoding="utf-8"?>
<!-- Generator: Adobe Illustrator 28.1.0, SVG Export Plug-In . SVG Version: 6.00 Build 0)  -->
<svg version="1.1" id="Layer_1" xmlns="http://www.w3.org/2000/svg" xmlns:xlink="http://www.w3.org/1999/xlink" x="0px" y="0px"
	 viewBox="0 0 60 60" style="enable-background:new 0 0 60 60;" xml:space="preserve">
<style type="text/css">
	.st0{fill:#C9BB7F;}
</style>
<circle class="st0" cx="30" cy="30" r="29.4783"/>
<g>
	<g>
		<path d="M15.8617,11.1149c0.2359,2.0506,1.0597,3.7884,1.9935,5.608c0.9543,1.8596,1.9522,3.6994,3.0087,5.503
			c0.9583,1.6359,2.0193,3.2417,3.4033,4.5525c1.3419,1.271,2.9013,2.3075,4.3882,3.3973
			c5.8138,4.2613,11.6985,9.3479,13.4455,16.6557c0.5983,2.5025,4.4563,1.443,3.8571-1.0634
			c-1.7281-7.2285-7.0081-12.6944-12.7138-17.1114c-2.8582-2.2126-6.1449-4.0514-8.1382-7.1539
			c-1.0511-1.6359-1.9785-3.36-2.8939-5.0743c-0.858-1.6068-2.1375-3.4633-2.3503-5.3135c-0.1234-1.0729-0.8309-2-2-2
			C16.8764,9.1149,15.7375,10.0348,15.8617,11.1149L15.8617,11.1149z"/>
	</g>
</g>
<g>
	<g>
		<path d="M16.268,12.1516c-2.2765-0.3756-4.5636-0.6624-6.8629-0.8551c-0.6362-0.0533-1.1522,0.6835-0.9643,1.2658
			c1.3121,4.0672,2.897,8.0253,4.6773,11.9092c0.8188,1.7864,1.5507,3.7189,2.6163,5.3753
			c0.9551,1.4847,2.3479,2.4972,3.7606,3.5125c1.5568,1.1189,3.1603,2.1679,4.855,3.0669c1.5234,0.8081,3.1323,1.5084,4.5188,2.5485
			c0.6831,0.5124,1.2607,1.4339,2.0378,1.796c0.6829,0.3182,1.4413,0.1287,2.1617,0.0821c2.2841-0.1475,4.5252,0.1385,6.7172,0.784
			c1.2372,0.3643,1.7656-1.5652,0.5317-1.9286c-1.8211-0.5363-3.7-0.8515-5.6002-0.8902c-0.8285-0.0169-2.1227,0.2983-2.8783,0.0102
			c-0.644-0.2456-1.2331-1.0311-1.8038-1.461c-1.3345-1.0054-2.8451-1.7153-4.3209-2.4828c-1.557-0.8097-3.044-1.7312-4.4824-2.736
			c-1.4958-1.045-3.0603-2.0706-3.994-3.6826c-0.9211-1.5903-1.6277-3.3347-2.3927-5.0037
			c-1.7086-3.7276-3.2164-7.5282-4.4757-11.4314c-0.3214,0.4219-0.6429,0.8439-0.9643,1.2658
			c2.1216,0.1778,4.2305,0.437,6.3312,0.7836C16.9953,14.288,17.5368,12.361,16.268,12.1516L16.268,12.1516z"/>
	</g>
</g>
<g>
	<g>
		<path d="M20.7448,13.3896c2.078-1.9488,4.0454-4.0035,5.9021-6.1642c-0.569-0.2357-1.1381-0.4714-1.7071-0.7071
			c0.3029,3.3073,1.52,6.3285,2.9365,9.3016c0.6425,1.3485,1.1337,2.6756,2.3509,3.5963c1.4008,1.0596,2.7806,2.1382,4.1116,3.2851
			c2.5092,2.162,4.8703,4.4948,7.0635,6.9767c0.5361,0.6067,1.0615,1.2227,1.5769,1.847c0.2786,0.3375,0.5867,0.668,0.834,1.0293
			c0.3672,0.5365,0.3492,0.6185,0.1851,1.1475c-0.2713,0.8748-0.8578,1.7348-1.2647,2.5576
			c-0.4216,0.8525-0.8431,1.7051-1.2647,2.5576c-0.5686,1.1499,1.1558,2.1644,1.7269,1.0094
			c0.843-1.7048,1.7022-3.4027,2.5294-5.1153c0.7407-1.5334,0.538-2.2687-0.4978-3.5711c-2.1532-2.7075-4.5001-5.26-7.0151-7.6352
			c-1.2307-1.1623-2.5025-2.2809-3.8113-3.3545c-1.2346-1.0127-3.015-1.9697-3.8278-3.3399
			c-1.793-3.0225-3.3118-6.7804-3.6334-10.2922c-0.0714-0.7794-1.0905-1.4247-1.7071-0.7071
			c-1.8568,2.1607-3.8241,4.2154-5.9021,6.1642C18.3898,12.8578,19.8062,14.2699,20.7448,13.3896L20.7448,13.3896z"/>
	</g>
</g>
<g>
	<g>
		<path d="M42.514,48.2488c0.0441,0.0467,0.0877,0.0937,0.1296,0.1424c0.1612,0.1877-0.0064,0.006,0.0026-0.0029
			c-0.0002,0.0002,0.198,0.2953,0.2113,0.3176c0.0656,0.1094,0.1262,0.2219,0.1826,0.3364
			c0.0283,0.0576,0.0542,0.1162,0.0818,0.1741c0.0868,0.1817-0.0824-0.2096,0.0114,0.0285c0.1947,0.4939,0.332,1.0078,0.4665,1.5207
			c0.1071,0.4083,0.5325,0.7535,0.9643,0.7342c0.4298-0.0192,0.8602-0.2948,0.9643-0.7342c0.1714-0.7234,0.1716-1.46,0.1681-2.1982
			c-0.0015-0.3225,0-0.6457,0.03-0.967c0.0042-0.0453,0.009-0.0906,0.0144-0.1358c-0.0216,0.1532-0.0239,0.1745-0.0069,0.0638
			c0.0133-0.0666,0.0239-0.1336,0.0387-0.1999c0.0396-0.1781,0.0943-0.351,0.1619-0.5204c0.09-0.2255,0.0164-0.5703-0.1008-0.7706
			c-0.1214-0.2074-0.3592-0.4053-0.5976-0.4596c-0.5775-0.1315-1.0219,0.1769-1.2301,0.6984
			c-0.2702,0.6768-0.3098,1.4302-0.3099,2.1516c-0.0001,0.3254,0.0076,0.6509-0.0016,0.9763
			c-0.0046,0.1616-0.013,0.3232-0.0288,0.4842c-0.0045,0.0458-0.0095,0.0915-0.0152,0.1371
			c0.021-0.1519,0.0229-0.1724,0.0055-0.0614c-0.0189,0.09-0.0349,0.1801-0.0561,0.2697c0.6429,0,1.2857,0,1.9286,0
			c-0.3216-1.2263-0.7093-2.4573-1.6-3.3992c-0.3602-0.3809-1.0558-0.3904-1.4142,0C42.1392,47.243,42.1297,47.8425,42.514,48.2488
			L42.514,48.2488z"/>
	</g>
</g>
<g>
	<g>
		<path d="M12.684,16.0618c1.7779,0.6854,3.6333,1.1173,5.5277,1.3149c0.269,0.0281,0.5-0.2499,0.5-0.5
			c0-0.2937-0.2302-0.4719-0.5-0.5c-1.802-0.188-3.5721-0.6277-5.2618-1.2791c-0.252-0.0972-0.5486,0.1072-0.6151,0.3492
			C12.2572,15.729,12.431,15.9643,12.684,16.0618L12.684,16.0618z"/>
	</g>
</g>
<g>
	<g>
		<path d="M15.8328,19.1069c1.0109,0.3457,2.0917,0.4986,3.1589,0.4491c0.2609-0.0121,0.5125-0.2213,0.5-0.5
			c-0.0117-0.2605-0.2202-0.513-0.5-0.5c-1.0192,0.0473-1.9228-0.0816-2.893-0.4133c-0.2477-0.0847-0.5576,0.0969-0.6151,0.3492
			C15.4203,18.7695,15.5676,19.0162,15.8328,19.1069L15.8328,19.1069z"/>
	</g>
</g>
<g>
	<g>
		<path d="M17.2194,24.1654c1.8245,0.1839,3.6628,0.08,5.459-0.2864c0.6301-0.1285,0.3634-1.0926-0.2658-0.9643
			c-1.709,0.3486-3.4583,0.4255-5.1931,0.2506c-0.2691-0.0271-0.5,0.2492-0.5,0.5C16.7194,23.9583,16.9496,24.1382,17.2194,24.1654
			L17.2194,24.1654z"/>
	</g>
</g>
<g>
	<g>
		<path d="M20.7682,25.9345c0.809-0.0282,1.616-0.1708,2.3817-0.434c0.2468-0.0848,0.436-0.347,0.3492-0.6151
			c-0.0792-0.2446-0.3502-0.4402-0.6151-0.3492c-0.3553,0.1221-0.7185,0.2196-1.0878,0.289
			c-0.0905,0.017-0.1814,0.0324-0.2724,0.0461c-0.0156,0.0023-0.157,0.0262-0.0355,0.0056
			c-0.0487,0.0083-0.0987,0.0121-0.1478,0.0174c-0.1903,0.0206-0.3811,0.0335-0.5724,0.0401c-0.2611,0.0091-0.5124,0.2235-0.5,0.5
			C20.28,25.6976,20.4882,25.9442,20.7682,25.9345L20.7682,25.9345z"/>
	</g>
</g>
<g>
	<g>
		<path d="M20.6102,28.4283c1.4478,0.0266,2.869-0.3239,4.1638-0.964c0.242-0.1196,0.3089-0.4627,0.1794-0.6841
			c-0.1443-0.2467-0.4412-0.2995-0.6841-0.1794c-1.1368,0.562-2.3909,0.8508-3.659,0.8275
			C19.9664,27.4165,19.9664,28.4165,20.6102,28.4283L20.6102,28.4283z"/>
	</g>
</g>
<g>
	<g>
		<path d="M26.9623,32.0445c0.9412-0.1855,1.7464-0.74,2.5118-1.2886c0.212-0.152,0.3351-0.4426,0.1794-0.6841
			c-0.1356-0.2103-0.4567-0.3423-0.6841-0.1794c-0.3643,0.2611-0.7304,0.5218-1.1206,0.7433
			c-0.0953,0.0541-0.192,0.1058-0.2903,0.1543c-0.0489,0.0242-0.0982,0.0475-0.148,0.07c-0.01,0.0045-0.0911,0.0408-0.0338,0.0157
			c0.0572-0.025-0.0243,0.0096-0.0346,0.0137c-0.2092,0.0831-0.4247,0.1472-0.6456,0.1907
			c-0.2571,0.0507-0.4281,0.3713-0.3492,0.6151C26.4357,31.9688,26.6868,32.0988,26.9623,32.0445L26.9623,32.0445z"/>
	</g>
</g>
<g>
	<g>
		<path d="M31.5303,35.7723c1.5828-0.1781,3.0293-0.8014,4.4709-1.4441c0.2467-0.11,0.305-0.4692,0.1794-0.6841
			c-0.1486-0.254-0.4365-0.2898-0.6841-0.1794c-1.266,0.5644-2.5744,1.151-3.9662,1.3076c-0.2683,0.0302-0.5,0.2082-0.5,0.5
			C31.0303,35.5191,31.2602,35.8027,31.5303,35.7723L31.5303,35.7723z"/>
	</g>
</g>
<g>
	<g>
		<path d="M34.0098,37.7019c1.2193-0.3485,2.4701-0.5214,3.7382-0.5158c0.6436,0.0028,0.6444-0.9972,0-1
			c-1.3515-0.006-2.7046,0.1801-4.0041,0.5515C33.1263,36.9141,33.3889,37.8793,34.0098,37.7019L34.0098,37.7019z"/>
	</g>
</g>
<g>
	<g>
		<path d="M21.9025,16.0097c0.2613-0.2263,0.5226-0.4526,0.7839-0.679c0.0927-0.0803,0.1464-0.2346,0.1464-0.3536
			c0-0.1226-0.0545-0.2691-0.1464-0.3536c-0.0953-0.0875-0.2204-0.1524-0.3536-0.1464c-0.0443,0.006-0.0886,0.0119-0.1329,0.0179
			c-0.0847,0.0238-0.1582,0.0666-0.2206,0.1286c-0.2613,0.2263-0.5226,0.4526-0.7839,0.679
			c-0.0927,0.0803-0.1464,0.2346-0.1464,0.3536c0,0.1226,0.0545,0.2691,0.1464,0.3536c0.0953,0.0875,0.2204,0.1524,0.3536,0.1464
			c0.0443-0.006,0.0886-0.0119,0.1329-0.0179C21.7666,16.1146,21.8401,16.0717,21.9025,16.0097L21.9025,16.0097z"/>
	</g>
</g>
<g>
	<g>
		<path d="M22.6947,18.0282c0.7562-0.4898,1.2892-1.2103,1.9289-1.8295c0.6299-0.6098,1.3378-1.1219,2.1067-1.5425
			c0.5648-0.3089,0.0607-1.1728-0.5047-0.8635c-0.7988,0.437-1.544,0.9774-2.2071,1.6016
			c-0.6137,0.5777-1.1146,1.3081-1.8284,1.7704c-0.2264,0.1466-0.3201,0.4435-0.1794,0.6841
			C22.1423,18.0741,22.4671,18.1756,22.6947,18.0282L22.6947,18.0282z"/>
	</g>
</g>
<g>
	<g>
		<path d="M23.842,20.3757c0.3761-0.2485,0.7296-0.5364,1.0426-0.8611c0.09-0.0934,0.1464-0.2229,0.1464-0.3536
			c0-0.1226-0.0545-0.2691-0.1464-0.3536c-0.0953-0.0875-0.2204-0.1524-0.3536-0.1464c-0.1312,0.0059-0.2602,0.0496-0.3536,0.1464
			c-0.1894,0.1964-0.3927,0.3786-0.6085,0.5455c0.0337-0.0261,0.0675-0.0521,0.1012-0.0782
			c-0.1081,0.0831-0.2191,0.1622-0.3329,0.2374c-0.1086,0.0718-0.1945,0.1708-0.2298,0.2988
			c-0.033,0.1197-0.0181,0.2791,0.0504,0.3853c0.0688,0.1068,0.1713,0.2007,0.2988,0.2298
			C23.5838,20.4551,23.7297,20.4499,23.842,20.3757L23.842,20.3757z"/>
	</g>
</g>
<g>
	<g>
		<path d="M27.6292,24.5195c0.0085-0.0207,0.017-0.0414,0.0256-0.062c-0.0287,0.0679-0.0323,0.0769-0.0109,0.0269
			c0.0183-0.0408,0.0361-0.0818,0.0547-0.1225c0.0372-0.0813,0.076-0.162,0.1163-0.2418c0.0805-0.1598,0.1669-0.3166,0.259-0.4699
			c0.0921-0.1534,0.1898-0.3034,0.293-0.4495c0.0488-0.0691,0.0971-0.1583,0.1588-0.2163c-0.0442,0.0568-0.0497,0.064-0.0166,0.0216
			c0.0138-0.0176,0.0277-0.0351,0.0417-0.0526c0.028-0.0349,0.0563-0.0695,0.0848-0.104c0.0868-0.1048,0.1464-0.2127,0.1464-0.3536
			c0-0.1226-0.0545-0.2691-0.1464-0.3536c-0.1842-0.1691-0.529-0.2151-0.7071,0c-0.5311,0.6416-0.9474,1.3415-1.2637,2.1113
			c-0.0459,0.1116-0.0076,0.2862,0.0504,0.3853c0.0607,0.1037,0.1796,0.2026,0.2988,0.2298
			c0.128,0.0292,0.2717,0.0228,0.3853-0.0504C27.516,24.7431,27.5768,24.6469,27.6292,24.5195L27.6292,24.5195z"/>
	</g>
</g>
<g>
	<g>
		<path d="M30.9797,27.4127c0.0735-0.1061,0.1481-0.2113,0.2244-0.3154c0.0424-0.0578,0.0852-0.1153,0.1285-0.1724
			c0.0173-0.0229,0.0347-0.0456,0.0522-0.0684c-0.043,0.0561-0.011,0.0144,0.0142-0.0177c0.1639-0.2086,0.3338-0.4124,0.5096-0.611
			c0.3517-0.3974,0.7268-0.7734,1.1219-1.1276c0.1953-0.1751,0.1916-0.5312,0-0.7071c-0.2086-0.1914-0.4988-0.1868-0.7071,0
			c-0.8333,0.7472-1.5701,1.5951-2.2072,2.515c-0.1493,0.2156-0.0468,0.5646,0.1794,0.6841
			C30.5506,27.7269,30.8203,27.6429,30.9797,27.4127L30.9797,27.4127z"/>
	</g>
</g>
<g>
	<g>
		<path d="M32.6229,28.6996c0.0467-0.0696,0.0947-0.1381,0.1446-0.2055c-0.0313,0.0423-0.0005-0.0001,0.014-0.018
			c0.0263-0.0326,0.0528-0.065,0.0798-0.0969c0.1027-0.1215,0.2116-0.2376,0.3262-0.3479c0.2486-0.2394,0.3961-0.3546,0.6905-0.5379
			c0.128-0.0797,0.2598-0.1534,0.3946-0.2207c0.0749-0.0374,0.1508-0.0731,0.2276-0.1063c-0.0492,0.0212-0.004,0.0016,0.0197-0.0075
			c0.0391-0.0151,0.078-0.0304,0.1173-0.0448c0.3071-0.1129,0.6245-0.1916,0.9482-0.2386c0.2675-0.0388,0.4144-0.378,0.3492-0.6151
			c-0.0789-0.287-0.3468-0.3882-0.6151-0.3492c-1.447,0.2101-2.7501,1.0763-3.5602,2.2839
			c-0.1505,0.2243-0.0435,0.5538,0.1794,0.6841C32.1845,29.0227,32.4721,28.9245,32.6229,28.6996L32.6229,28.6996z"/>
	</g>
</g>
<g>
	<g>
		<path d="M34.6614,30.5438c0.2464-0.3072,0.5281-0.584,0.8394-0.8252c-0.0337,0.0261-0.0675,0.0521-0.1012,0.0782
			c0.0805-0.0619,0.1627-0.1214,0.2467-0.1784c0.1086-0.0738,0.1941-0.1691,0.2298-0.2988c0.033-0.1197,0.0181-0.2791-0.0504-0.3853
			c-0.0688-0.1068-0.1713-0.2007-0.2988-0.2298c-0.1261-0.0287-0.2745-0.0249-0.3853,0.0504
			c-0.445,0.3026-0.8503,0.6616-1.1872,1.0819c-0.086,0.1072-0.1464,0.2106-0.1464,0.3536c0,0.1226,0.0545,0.2691,0.1464,0.3536
			c0.0953,0.0875,0.2204,0.1524,0.3536,0.1464C34.4319,30.6847,34.5802,30.6451,34.6614,30.5438L34.6614,30.5438z"/>
	</g>
</g>
<g>
	<g>
		<path d="M38.3286,33.7921c0.1978-0.2242,0.4106-0.4343,0.6393-0.627c0.0556-0.0468,0.1118-0.0929,0.1693-0.1374
			c-0.0542,0.042,0.0121-0.0082,0.0339-0.0243c0.026-0.0192,0.0522-0.0381,0.0785-0.0568c0.125-0.089,0.2534-0.1732,0.3849-0.2522
			c0.5275-0.3171,1.146-0.4792,1.6103-0.8945c0.1955-0.1749,0.1914-0.5314,0-0.7071c-0.2088-0.1916-0.4985-0.1865-0.7071,0
			c-0.0085,0.0076-0.1028,0.0828-0.0585,0.0509c0.0381-0.0274-0.0385,0.024-0.0455,0.0286
			c-0.0594,0.0385-0.1211,0.0734-0.1839,0.1061c-0.1339,0.0696-0.2732,0.1283-0.4113,0.1889
			c-0.2732,0.12-0.5381,0.2563-0.7914,0.4142c-0.5286,0.3296-1.0134,0.7364-1.4256,1.2035c-0.173,0.196-0.2075,0.5166,0,0.7071
			C37.8108,33.9659,38.1438,34.0015,38.3286,33.7921L38.3286,33.7921z"/>
	</g>
</g>
<g>
	<g>
		<path d="M39.7274,36.0017c0.9251-0.5351,1.8134-1.1312,2.6593-1.7843c0.108-0.0834,0.1919-0.1614,0.2298-0.2988
			c0.033-0.1197,0.0181-0.2791-0.0504-0.3853c-0.1313-0.2037-0.4627-0.3504-0.6841-0.1794
			c-0.8459,0.6532-1.7342,1.2492-2.6593,1.7843c-0.2265,0.131-0.3252,0.4578-0.1794,0.6841
			C39.1906,36.0508,39.485,36.1419,39.7274,36.0017L39.7274,36.0017z"/>
	</g>
</g>
</svg>
